<?xml version="1.0" encoding="UTF-8"?>
<svg version="1.1" xmlns="http://www.w3.org/2000/svg" width="100" height="47">
<path d="M0 0 C1.9375 0.6875 1.9375 0.6875 2.9375 2.6875 C3.7231572 9.57883604 3.22381134 14.63686139 0 20.8125 C-1.50734895 23.69730529 -1.50734895 23.69730529 -2.0625 26.6875 C-0.70330668 29.86905124 0.94334615 32.04475475 3.23046875 34.62890625 C4.9375 36.6875 4.9375 36.6875 4.9375 39.6875 C1.55634349 39.97786649 -1.69169149 40.13658891 -5.0625 39.6875 C-7.6875 37.1875 -7.6875 37.1875 -9.0625 34.6875 C-9.70703125 35.50476562 -10.3515625 36.32203125 -11.015625 37.1640625 C-15.07626609 40.52710627 -17.72620468 40.31123957 -22.8125 40.0625 C-23.59238281 40.04832031 -24.37226562 40.03414062 -25.17578125 40.01953125 C-30.87925502 39.87074498 -30.87925502 39.87074498 -32.0625 38.6875 C-32.14881874 37.34482587 -32.16956473 35.99775678 -32.16015625 34.65234375 C-32.15693359 33.84345703 -32.15371094 33.03457031 -32.15039062 32.20117188 C-32.13782227 30.9259668 -32.13782227 30.9259668 -32.125 29.625 C-32.12048828 28.77099609 -32.11597656 27.91699219 -32.11132812 27.03710938 C-32.09950373 24.92054337 -32.08156769 22.80401315 -32.0625 20.6875 C-33.7125 21.0175 -35.3625 21.3475 -37.0625 21.6875 C-37.3925 27.6275 -37.7225 33.5675 -38.0625 39.6875 C-41.3625 39.6875 -44.6625 39.6875 -48.0625 39.6875 C-48.5575 30.2825 -48.5575 30.2825 -49.0625 20.6875 C-49.84496094 22.48058594 -50.62742187 24.27367188 -51.43359375 26.12109375 C-52.45560629 28.45578296 -53.47774839 30.79041546 -54.5 33.125 C-55.2744043 34.90100586 -55.2744043 34.90100586 -56.06445312 36.71289062 C-56.55751953 37.83759766 -57.05058594 38.96230469 -57.55859375 40.12109375 C-58.01419678 41.16322021 -58.4697998 42.20534668 -58.93920898 43.27905273 C-60.0625 45.6875 -60.0625 45.6875 -61.0625 46.6875 C-62.74858966 46.75955511 -64.43750659 46.77136068 -66.125 46.75 C-67.04410156 46.74097656 -67.96320313 46.73195312 -68.91015625 46.72265625 C-69.62042969 46.71105469 -70.33070312 46.69945312 -71.0625 46.6875 C-69.0625 40.6875 -69.0625 40.6875 -67.6875 38.1484375 C-66.69159057 32.63358904 -69.40924685 28.76296489 -71.9375 23.9375 C-72.89607611 22.04831685 -73.85194879 20.15775874 -74.8046875 18.265625 C-75.2363623 17.43450195 -75.66803711 16.60337891 -76.11279297 15.74707031 C-77.0625 13.6875 -77.0625 13.6875 -77.0625 11.6875 C-73.7625 11.6875 -70.4625 11.6875 -67.0625 11.6875 C-66.22430842 13.30999941 -65.3920884 14.93558497 -64.5625 16.5625 C-64.0984375 17.46742187 -63.634375 18.37234375 -63.15625 19.3046875 C-62.0625 21.6875 -62.0625 21.6875 -62.0625 23.6875 C-61.4025 23.6875 -60.7425 23.6875 -60.0625 23.6875 C-59.959375 23.006875 -59.85625 22.32625 -59.75 21.625 C-58.92525709 18.10109846 -57.5158512 14.99552994 -56.0625 11.6875 C-49.39583333 11.6875 -42.72916667 11.6875 -36.0625 11.6875 C-34.78375 11.605 -33.505 11.5225 -32.1875 11.4375 C-28.90691136 11.4314584 -28.06987697 11.68294825 -25.125 13.5 C-21.45711535 17.39018069 -21.77055108 21.79662309 -21.5 26.875 C-21.43522461 27.99938477 -21.43522461 27.99938477 -21.36914062 29.14648438 C-21.26327315 30.99328375 -21.1624024 32.84036834 -21.0625 34.6875 C-19.0825 32.3775 -17.1025 30.0675 -15.0625 27.6875 C-16.45277864 23.23860835 -18.92293595 20.11749025 -21.8203125 16.5546875 C-23.0625 14.6875 -23.0625 14.6875 -23.0625 11.6875 C-14.28671525 10.76732063 -14.28671525 10.76732063 -11.28515625 13.0234375 C-9.9375 14.6875 -9.9375 14.6875 -8.0625 17.6875 C-5.5182991 12.59909821 -4.65439651 8.40978759 -4.37109375 2.7265625 C-4.26925781 2.05367188 -4.16742188 1.38078125 -4.0625 0.6875 C-2.0625 -0.3125 -2.0625 -0.3125 0 0 Z " fill="#01449C" transform="translate(95.0625,0.3125)"/>
<path d="M0 0 C2.97 0 5.94 0 9 0 C8.9278125 0.85722656 8.855625 1.71445313 8.78125 2.59765625 C8.0227601 11.28854716 8.0227601 11.28854716 8 20 C9.119 21.33954055 9.119 21.33954055 12 21.1875 C16.49638237 21.14076006 20.64720823 20.07145643 25 19 C25 21.97 25 24.94 25 28 C16.75 28 8.5 28 0 28 C0 18.76 0 9.52 0 0 Z " fill="#02439B" transform="translate(0,12)"/>
<path d="M0 0 C0 2.31 0 4.62 0 7 C-1.98 7.99 -3.96 8.98 -6 10 C-6.8125 7.8125 -6.8125 7.8125 -7 5 C-2.88888889 0 -2.88888889 0 0 0 Z " fill="#02449A" transform="translate(18,17)"/>
</svg>
