<?xml version="1.0" encoding="UTF-8"?>
<svg version="1.1" xmlns="http://www.w3.org/2000/svg" width="1920" height="899">
<path d="M0 0 C2.26064589 1.6696406 3.26581181 3.18585836 4.64038086 5.63427734 C5.12780762 6.4924707 5.61523438 7.35066406 6.11743164 8.23486328 C6.62516113 9.1581543 7.13289063 10.08144531 7.65600586 11.03271484 C8.45433838 12.46405762 8.45433838 12.46405762 9.26879883 13.92431641 C10.83063617 16.74365728 12.37229739 19.57299138 13.90600586 22.40771484 C14.29369141 23.11831055 14.68137695 23.82890625 15.08081055 24.56103516 C38.90466899 68.63854139 49.1147043 118.75103747 49.15600586 168.53271484 C49.15701797 169.65072479 49.15701797 169.65072479 49.15805054 170.7913208 C49.09079235 218.45662921 40.0567316 264.39329701 24.88745117 309.45898438 C24.04685826 311.98452695 23.24128357 314.51551526 22.46069336 317.06005859 C10.21169186 356.53312916 -9.59457576 394.96670776 -30.79760742 430.24902344 C-32.21364138 432.60694665 -33.62085191 434.97001485 -35.02758789 437.33349609 C-41.25283235 447.77433102 -47.57622796 458.14682396 -54.09399414 468.40771484 C-54.53598145 469.10493652 -54.97796875 469.8021582 -55.43334961 470.52050781 C-61.69348049 480.37182488 -68.20831305 489.9828455 -75.09399414 499.40771484 C-71.34834826 505.5567103 -67.39377499 511.4512767 -63.09399414 517.22021484 C-57.75889772 524.38895785 -52.72934528 531.74733823 -47.7175293 539.14453125 C-43.85751795 544.83611357 -39.95276742 550.48960497 -35.96899414 556.09521484 C-31.78030166 561.99041167 -27.66537369 567.93089107 -23.59399414 573.90771484 C-18.95234044 580.72099938 -14.24224726 587.48018433 -9.47290039 594.20458984 C-5.67441356 599.56656993 -1.94469969 604.97278222 1.76635742 610.39550781 C5.55215488 615.91725171 9.413796 621.38294396 13.28710938 626.84350586 C17.03256309 632.13739301 20.69811885 637.48206901 24.34350586 642.84521484 C28.60173311 649.10548239 32.94894772 655.28747522 37.40600586 661.40771484 C42.43266652 668.31010805 47.29783649 675.30749369 52.09912109 682.36816406 C57.12260569 689.74927079 62.26329964 697.04310635 67.4309082 704.32373047 C68.90395053 706.40481112 70.36906615 708.49124433 71.83178711 710.57958984 C76.08454441 716.64338049 80.35364378 722.68634972 84.77319336 728.63037109 C85.4191748 729.49936035 86.06515625 730.36834961 86.73071289 731.26367188 C87.99539871 732.95943499 89.2644772 734.65193262 90.53833008 736.34082031 C91.39322021 737.48574951 91.39322021 737.48574951 92.26538086 738.65380859 C92.77552734 739.33113037 93.28567383 740.00845215 93.8112793 740.70629883 C94.90600586 742.40771484 94.90600586 742.40771484 94.90600586 744.40771484 C72.34121473 745.18175594 49.77863554 745.76199289 27.20322227 746.11751652 C16.71794028 746.28706384 6.24094332 746.51768649 -4.23901367 746.8972168 C-13.38414889 747.22824614 -22.52328787 747.43948655 -31.67424715 747.51263517 C-36.5148793 747.55536842 -41.33837912 747.65401856 -46.17345047 747.89680672 C-74.75333083 749.27692756 -74.75333083 749.27692756 -83.02495313 742.92486525 C-91.08339245 735.2270433 -96.282351 725.18061321 -101.13677788 715.28141594 C-103.61212333 710.26254907 -106.68509856 705.70545945 -109.88696289 701.12646484 C-110.81779411 699.7192084 -111.74491608 698.3094823 -112.66625977 696.89599609 C-114.45129022 694.17369989 -116.23767893 691.45230951 -118.02563477 688.73193359 C-122.6499689 681.69082176 -127.24724601 674.63303889 -131.81665039 667.55615234 C-135.93635245 661.17671613 -140.10941129 654.83665279 -144.34399414 648.53271484 C-147.94774953 643.15291339 -151.5341931 637.7721229 -154.96899414 632.28271484 C-158.41151843 626.79756744 -162.22764317 621.59967186 -166.09399414 616.40771484 C-167.312635 617.82946251 -168.53124993 619.2512324 -169.74975586 620.6730957 C-170.8290813 621.93208833 -171.90884689 623.19070374 -172.98901367 624.44897461 C-175.69298698 627.59996632 -178.39153313 630.75500196 -181.07055664 633.92724609 C-186.94662994 640.86728753 -192.99453992 647.60168865 -199.23193359 654.21948242 C-202.10804124 657.27186634 -204.94183296 660.33425266 -207.65649414 663.53271484 C-211.27351518 667.74797091 -215.24340056 671.61063244 -219.21337891 675.49023438 C-222.0302368 678.26194342 -224.71265762 681.08710176 -227.28173828 684.09106445 C-231.13587403 688.51610352 -235.21740992 692.67552141 -239.37133789 696.81787109 C-240.14151749 697.58900742 -240.91169708 698.36014374 -241.70521545 699.15464783 C-243.32340787 700.77351637 -244.94284626 702.39114035 -246.56347656 704.00756836 C-249.02466646 706.46340202 -251.48047223 708.92452849 -253.93579102 711.38623047 C-255.51815281 712.96793138 -257.10082481 714.54932201 -258.68383789 716.13037109 C-259.40804428 716.85660172 -260.13225067 717.58283234 -260.87840271 718.33106995 C-264.92952538 722.36388596 -269.07425994 726.22463341 -273.41307068 729.94697571 C-275.44932238 731.7164986 -277.34463954 733.59344753 -279.21899414 735.53271484 C-280.4886797 736.84599476 -281.78253535 738.13614833 -283.09399414 739.40771484 C-283.87330795 740.2617691 -284.65262177 741.11582336 -285.45555115 741.99575806 C-290.10966134 745.80717276 -295.62788356 745.07192707 -301.36376953 744.99121094 C-302.61079651 744.9935247 -303.85782349 744.99583847 -305.14263916 744.99822235 C-308.59629818 744.99952007 -312.04848468 744.97833506 -315.50191808 744.94751501 C-319.22654306 744.91968293 -322.95117553 744.92065362 -326.67588806 744.91799927 C-333.96375778 744.90824291 -341.25126104 744.87169091 -348.53898662 744.82635605 C-357.0147554 744.77478706 -365.49053303 744.75153979 -373.96642041 744.72917414 C-393.6053541 744.67581731 -413.24390132 744.57199922 -432.88255012 744.4558599 C-439.26135284 744.41816349 -445.64016328 744.38218112 -452.01898193 744.34729004 C-462.7926933 744.28831397 -473.56639405 744.22762269 -484.34008789 744.16552734 C-485.14408122 744.16091161 -485.94807456 744.15629588 -486.77643132 744.15154028 C-521.21597524 743.95321429 -555.65496017 743.67851325 -590.09399414 743.40771484 C-590.09535067 742.79766348 -590.0967072 742.18761211 -590.09810483 741.55907434 C-590.17885 705.35890135 -590.26984334 669.15876748 -590.37404575 632.95865413 C-590.38656381 628.60679502 -590.39899671 624.25493567 -590.41137695 619.90307617 C-590.41507594 618.60357481 -590.41507594 618.60357481 -590.41884966 617.27782089 C-590.45851464 603.27176869 -590.49128961 589.26570849 -590.52149396 575.25963306 C-590.55266764 560.87560882 -590.5913021 546.4916184 -590.6367842 532.10763222 C-590.6645898 523.24032005 -590.68665698 514.37303246 -590.70125665 505.50568856 C-590.71184297 499.41537318 -590.72971164 493.32510556 -590.75316118 487.23482626 C-590.76645609 483.72721812 -590.77668015 480.21967653 -590.77820778 476.71204185 C-590.71757768 456.96686365 -590.71757768 456.96686365 -593.09399414 437.40771484 C-593.3031952 436.27192065 -593.3031952 436.27192065 -593.51662254 435.11318111 C-596.38752861 421.10593595 -602.58751595 409.04728842 -612.09399414 398.40771484 C-612.57739258 397.79669922 -613.06079102 397.18568359 -613.55883789 396.55615234 C-623.66170735 384.81860109 -642.27679971 379.04229809 -657.09399414 377.40771484 C-679.03942207 376.3432909 -701.23411606 378.2326815 -719.09399414 392.40771484 C-719.89063477 393.03033203 -720.68727539 393.65294922 -721.50805664 394.29443359 C-738.67199022 408.66856373 -746.41564803 428.6082276 -749.09399414 450.40771484 C-749.74774086 459.45052085 -749.66669696 468.52329466 -749.64279962 477.58466625 C-749.63778178 481.17812347 -749.65602864 484.77148038 -749.67121887 488.36489868 C-749.69435865 494.56659657 -749.70328714 500.76817811 -749.70211029 506.9699173 C-749.70043008 515.93617472 -749.72088641 524.90227854 -749.74646559 533.86849472 C-749.78739378 548.42127415 -749.81082045 562.97402564 -749.82299805 577.52685547 C-749.83485406 591.64992966 -749.85514876 605.77295113 -749.88647461 619.89599609 C-749.88842012 620.77778203 -749.89036564 621.65956798 -749.8923701 622.5680747 C-749.90765413 629.46588538 -749.92342209 636.36369494 -749.93934274 643.26150417 C-750.01703686 676.97689912 -750.05258479 710.69221807 -750.09399414 744.40771484 C-800.25399414 744.40771484 -850.41399414 744.40771484 -902.09399414 744.40771484 C-902.09399414 582.04771484 -902.09399414 419.68771484 -902.09399414 252.40771484 C-853.91399414 252.40771484 -805.73399414 252.40771484 -756.09399414 252.40771484 C-755.76399414 269.89771484 -755.43399414 287.38771484 -755.09399414 305.40771484 C-752.45399414 301.77771484 -749.81399414 298.14771484 -747.09399414 294.40771484 C-733.05650106 277.92891862 -717.31728723 266.37593616 -697.84692383 257.23779297 C-696.3575201 256.5325043 -694.88397272 255.79388474 -693.41430664 255.04833984 C-672.89119582 244.95070704 -648.85758761 240.10544951 -626.09399414 239.40771484 C-624.9505957 239.35615234 -623.80719727 239.30458984 -622.62915039 239.25146484 C-575.09221441 238.11171813 -529.04947638 251.31506395 -494.09399414 284.40771484 C-493.20969727 285.22755859 -492.32540039 286.04740234 -491.41430664 286.89208984 C-479.4502332 298.34777489 -470.66325078 311.74951104 -463.09399414 326.40771484 C-462.74739746 327.07496582 -462.40080078 327.7422168 -462.04370117 328.4296875 C-453.76118776 344.59401028 -448.51391366 361.34487092 -444.78149414 379.09521484 C-444.41773682 380.82046387 -444.41773682 380.82046387 -444.04663086 382.58056641 C-440.13758675 402.17827587 -439.78497244 421.49675668 -439.77731991 441.39608264 C-439.77358357 445.432635 -439.75840782 449.46914767 -439.7447052 453.50567627 C-439.72255986 460.47894996 -439.70747057 467.4522093 -439.6973381 474.42551041 C-439.68267827 484.50740868 -439.6571216 494.58925685 -439.62900682 504.67112552 C-439.58367063 521.03301565 -439.54700174 537.39491306 -439.51586914 553.75683594 C-439.48562939 569.63966139 -439.45125442 585.52246913 -439.41137695 601.40527344 C-439.40768463 602.87674271 -439.40768463 602.87674271 -439.40391771 604.37793864 C-439.39154206 609.29981091 -439.37908573 614.22168297 -439.36658931 619.14355493 C-439.26321902 659.89825021 -439.17395103 700.65296733 -439.09399414 741.40771484 C-435.51604962 737.85472112 -431.94158028 734.29827834 -428.37011719 730.73876953 C-427.15782166 729.5314642 -425.94462544 728.3250625 -424.73046875 727.11962891 C-415.79300963 718.27253773 -415.79300963 718.27253773 -407.38781738 708.92419434 C-404.94349862 706.05922858 -402.20042532 703.4960436 -399.50024414 700.87646484 C-396.86695813 698.17478179 -394.41283392 695.35321337 -391.94116211 692.50439453 C-389.01489163 689.18284935 -385.95631757 685.99038496 -382.90649414 682.78271484 C-377.60918524 677.1761888 -372.49322064 671.46279115 -367.52197266 665.56640625 C-363.91709218 661.31088881 -360.16654771 657.21811129 -356.34399414 653.15771484 C-352.00135465 648.54076329 -347.9318738 643.82609035 -344.03930664 638.81787109 C-341.89073739 636.15588871 -339.60925413 633.66425264 -337.28149414 631.15771484 C-332.95791879 626.46942071 -329.02828922 621.57756758 -325.13427734 616.53637695 C-321.69628588 612.10949922 -318.04790552 607.94139563 -314.25805664 603.81005859 C-310.36292685 599.48604267 -306.74938871 594.93425485 -303.09399414 590.40771484 C-302.07121056 589.15327515 -301.04773247 587.8994015 -300.02368164 586.64599609 C-294.2722422 579.60013921 -288.57792583 572.5162231 -282.97949219 565.34814453 C-280.20960996 561.80764023 -277.39275115 558.31279777 -274.53149414 554.84521484 C-270.92009911 550.45765854 -267.42716755 545.98881851 -263.98022461 541.47192383 C-261.71813967 538.5101299 -259.43695405 535.56620785 -257.12133789 532.64599609 C-256.62682129 532.02184814 -256.13230469 531.3977002 -255.62280273 530.75463867 C-254.67112628 529.55593198 -253.71715595 528.35904153 -252.76049805 527.16430664 C-250.2777033 524.03392622 -248.06066001 520.88670134 -246.09399414 517.40771484 C-251.48256007 509.17425386 -257.08184099 501.10154934 -262.73803711 493.05078125 C-266.47232126 487.73304096 -270.17541287 482.39596017 -273.84399414 477.03271484 C-277.20775621 472.11846393 -280.61836662 467.24348952 -284.09399414 462.40771484 C-287.56962579 457.57193442 -290.97999058 452.69680445 -294.34399414 447.78271484 C-303.35504509 434.62139262 -312.54693123 421.58640595 -321.76123047 408.56689453 C-325.58744998 403.14998513 -329.34579932 397.68856791 -333.09082031 392.21533203 C-336.04310781 387.91006794 -339.04678538 383.64623655 -342.09399414 379.40771484 C-346.03953203 373.9183046 -349.88955374 368.36943291 -353.70727539 362.79052734 C-358.05840126 356.4395804 -362.47671139 350.13667916 -366.89941406 343.83544922 C-370.51872897 338.67362974 -374.10211466 333.48939692 -377.65649414 328.28271484 C-381.61931152 322.47896727 -385.70654661 316.77557938 -389.84399414 311.09521484 C-393.8775234 305.55704583 -397.70490297 299.973367 -401.31274414 294.14599609 C-403.48901417 290.80045817 -405.83895512 287.61004832 -408.21899414 284.40771484 C-412.64476252 278.44254877 -416.94164555 272.39888409 -421.15649414 266.28271484 C-421.71675293 265.47705078 -422.27701172 264.67138672 -422.85424805 263.84130859 C-423.37809082 263.07689453 -423.90193359 262.31248047 -424.44165039 261.52490234 C-424.90579346 260.85056152 -425.36993652 260.1762207 -425.84814453 259.48144531 C-427.21808974 257.20115635 -428.13095993 254.88324166 -429.09399414 252.40771484 C-406.04167471 252.0570899 -382.98979567 251.79269484 -359.93534946 251.63053226 C-349.23024351 251.55322991 -338.52679549 251.44787637 -327.82275391 251.27612305 C-318.49137686 251.12646658 -309.1612004 251.0298095 -299.82865661 250.99638742 C-294.88773847 250.97685203 -289.9502543 250.93106716 -285.01043892 250.82176399 C-280.3561603 250.71961723 -275.70671327 250.68859495 -271.05142021 250.71109962 C-269.3472346 250.70698621 -267.64288094 250.67731229 -265.93966675 250.61963272 C-260.62403156 250.44850978 -256.11547213 250.53513868 -251.09399414 252.40771484 C-247.22669951 256.08540028 -245.04984592 260.83374973 -242.91943634 265.65150821 C-241.81629674 267.99854242 -240.39433991 270.02301314 -238.84399414 272.09521484 C-235.57793008 276.65440381 -232.51405973 281.32468409 -229.46899414 286.03271484 C-223.79183588 294.80338941 -218.07825516 303.5493221 -212.34399414 312.28271484 C-211.90706238 312.94833435 -211.47013062 313.61395386 -211.0199585 314.29974365 C-205.56600987 322.60774769 -200.10549129 330.91141542 -194.64086914 339.21240234 C-194.09934204 340.03505081 -193.55781494 340.85769928 -192.99987793 341.70527649 C-189.73758481 346.66111683 -189.73758481 346.66111683 -186.47485352 351.6166687 C-179.90679838 361.59217811 -173.34589179 371.57154369 -166.88305664 381.61572266 C-164.07082431 385.97180475 -161.13736837 390.20939104 -158.09399414 394.40771484 C-154.8317204 389.8266496 -151.9160308 385.2265765 -149.46899414 380.15771484 C-146.7543497 374.56667254 -143.71609567 369.21801635 -140.59399414 363.84521484 C-133.89860679 352.27604143 -127.80320038 340.41805472 -121.7043457 328.52685547 C-119.85498003 324.94476088 -117.96638988 321.38506269 -116.06787109 317.82885742 C-72.20229318 235.53167804 -44.69024654 143.35862795 -61.66870117 49.89892578 C-62.26391307 46.41239182 -62.69300888 42.92150325 -63.09399414 39.40771484 C-56.86256121 35.21918758 -50.60793253 31.0762977 -44.28149414 27.03271484 C-39.47533963 23.95881157 -34.70938414 20.83200344 -29.96899414 17.65771484 C-28.73074103 16.83475584 -27.49245875 16.01184072 -26.25415039 15.18896484 C-23.09869446 13.08895184 -19.96844937 10.95409595 -16.84008789 8.81396484 C-15.02926887 7.59465195 -13.21807408 6.37589692 -11.40649414 5.15771484 C-10.54459473 4.55991211 -9.68269531 3.96210937 -8.79467773 3.34619141 C-7.98208496 2.80446289 -7.16949219 2.26273437 -6.33227539 1.70458984 C-5.61080322 1.21313477 -4.88933105 0.72167969 -4.14599609 0.21533203 C-2.09399414 -0.59228516 -2.09399414 -0.59228516 0 0 Z " fill="#00449E" transform="translate(1825.093994140625,0.59228515625)"/>
<path d="M0 0 C55.77 0 111.54 0 169 0 C172.96 8.91 176.92 17.82 181 27 C183.64527825 32.76316205 186.29176391 38.52374284 188.96783447 44.27233887 C194.73918951 56.67616666 200.42671067 69.10683863 205.88793945 81.65087891 C211.39198861 94.25682631 217.16966422 106.7387868 222.90405273 119.24107361 C226.57915139 127.25665208 230.22868154 135.28379777 233.875 143.3125 C234.50878455 144.70768434 235.14257357 146.10286665 235.77636719 147.49804688 C236.97705976 150.14136084 238.17756583 152.7847594 239.37792969 155.42822266 C241.96902589 161.13378218 244.56255763 166.83823393 247.15600586 172.54272461 C249.31060317 177.28230898 251.46437727 182.02226576 253.61708069 186.76271057 C260.09775665 201.03326344 266.58508416 215.30045232 273.12402344 229.54443359 C277.77711508 239.6836647 282.39105341 249.84064055 287 260 C289.32817011 257.123535 290.80894889 254.40307257 292.171875 250.96875 C292.58115234 249.94910156 292.99042969 248.92945313 293.41210938 247.87890625 C293.85361328 246.76386719 294.29511719 245.64882813 294.75 244.5 C295.73289659 242.05147452 296.71710451 239.60351542 297.703125 237.15625 C297.96416016 236.50696533 298.22519531 235.85768066 298.49414062 235.1887207 C301.44266885 227.86967272 304.48738181 220.59114049 307.53274536 213.3119812 C312.1782888 202.20796715 316.7962677 191.09489077 321.3125 179.9375 C326.43490702 167.29219883 331.71044058 154.71249588 336.98977661 142.1321106 C342.41049502 129.21369959 347.78315447 116.27718892 353.09463501 103.31350708 C356.27146698 95.56372641 359.48182939 87.83014608 362.765625 80.125 C363.23624359 79.0202684 363.23624359 79.0202684 363.71636963 77.89321899 C365.44770781 73.83286276 367.18574599 69.77550724 368.93536377 65.72299194 C372.55888786 57.19834901 375.73339136 48.71095636 379 40 C387.415 20.2 387.415 20.2 396 0 C448.8 0 501.6 0 556 0 C552.99099594 7.82341055 550.01624938 15.43072541 546.5 23 C545.61644347 24.92413769 544.73367101 26.84863555 543.8515625 28.7734375 C543.38782227 29.78374023 542.92408203 30.79404297 542.44628906 31.83496094 C539.89458032 37.4190852 537.38470895 43.02190207 534.875 48.625 C534.60578735 49.22579376 534.33657471 49.82658752 534.0592041 50.44558716 C529.09740249 61.52073667 524.16885966 72.61061054 519.2444458 83.7024231 C513.9332403 95.66489358 508.59876912 107.61678071 503.25 119.5625 C496.47390463 134.69681411 489.72555111 149.84314207 483 165 C481.02147555 169.45861873 479.04240315 173.91699331 477.0625 178.375 C476.57040039 179.48302979 476.07830078 180.59105957 475.57128906 181.73266602 C472.15280908 189.42313392 468.71325394 197.10399791 465.26544189 204.78134155 C460.59398107 215.18373606 455.96112057 225.60201706 451.37915039 236.04418945 C442.43922513 256.40423113 433.4028806 276.72345774 424.2578125 296.9921875 C421.39169499 303.34476028 418.5390225 309.70336533 415.6875 316.0625 C415.41173126 316.67744324 415.13596252 317.29238647 414.85183716 317.92596436 C410.29127618 328.09794823 405.75952906 338.28256224 401.23681641 348.47143555 C398.36123029 354.94650159 395.47338331 361.41572587 392.5625 367.875 C392.2128418 368.65117676 391.86318359 369.42735352 391.50292969 370.22705078 C389.83430117 373.93039208 388.16523815 377.63353708 386.49560547 381.33642578 C384.82849837 385.03593036 383.1631611 388.7362201 381.5 392.4375 C381.21743347 393.06628052 380.93486694 393.69506104 380.64373779 394.34289551 C377.24827697 401.90525885 373.9119156 409.48802146 370.6875 417.125 C366.31982234 427.45968385 361.61522539 437.63660406 356.92904663 447.82940674 C353.0159881 456.34442123 349.1311618 464.85984426 345.5 473.5 C341.53778757 482.92787305 337.27130716 492.20943893 333 501.5 C326.66234219 515.27702655 326.66234219 515.27702655 320.625 529.1875 C316.3979508 539.22191109 311.91643894 549.13877245 307.4375 559.0625 C301.46508355 572.297184 295.51600179 585.54135465 289.625 598.8125 C288.96655287 600.29492193 288.3081056 601.77734381 287.6496582 603.25976562 C284.85426603 609.55559979 282.06322097 615.85331816 279.28237915 622.15559387 C278.42915974 624.08871879 277.57486841 626.02136619 276.72021484 627.95385742 C275.68685622 630.29148734 274.65578437 632.63013002 273.62744141 634.9699707 C273.17546387 635.99179443 272.72348633 637.01361816 272.2578125 638.06640625 C271.8673877 638.95271729 271.47696289 639.83902832 271.07470703 640.75219727 C270 643 270 643 268 646 C265.28635979 646.36914349 265.28635979 646.36914349 261.76119995 646.36076355 C261.11428983 646.36332682 260.46737971 646.3658901 259.80086625 646.36853105 C257.62334187 646.37349037 255.44650394 646.35694172 253.26904297 646.34057617 C251.71211768 646.33973036 250.15519119 646.34020415 248.5982666 646.34190369 C244.36287882 646.34276686 240.12774428 646.32508927 235.89241552 646.30418181 C231.46947852 646.28546845 227.04653616 646.2836688 222.62356567 646.28010559 C214.24415823 646.27076938 205.86486776 646.24613435 197.4855119 646.21605712 C187.94757399 646.18256206 178.4096306 646.16603944 168.87164855 646.15097082 C149.24770033 646.11958611 129.62385752 646.06679508 110 646 C110.78011894 643.95221292 111.56215349 641.90515555 112.3449707 639.85839844 C112.78025589 638.71836365 113.21554108 637.57832886 113.66401672 636.40374756 C115.67599473 631.27773638 117.92135376 626.26758423 120.1875 621.25 C121.25092849 618.87540963 122.31351869 616.50045998 123.375 614.125 C123.65913254 613.48983459 123.94326508 612.85466919 124.23600769 612.20025635 C128.09360719 603.56801588 131.88865046 594.9082104 135.6875 586.25 C136.06815613 585.38286377 136.44881226 584.51572754 136.84100342 583.62231445 C141.06721499 573.99402957 145.28255221 564.36110819 149.4765625 554.71875 C149.83843155 553.88683136 150.2003006 553.05491272 150.57313538 552.19778442 C152.72655241 547.24686293 152.72655241 547.24686293 154.87973022 542.2958374 C160.04239338 530.42907994 165.29120972 518.60437103 170.60839844 506.80615234 C174.03058718 499.2009277 177.36005033 491.56256284 180.61914062 483.88623047 C183.66848459 476.72249389 186.82800151 469.61014897 190 462.5 C191.01456924 460.2149531 192.02889491 457.92979804 193.04296875 455.64453125 C194.94381361 451.36250382 196.86493481 447.09051853 198.80078125 442.82421875 C199.63867822 440.94560557 200.47595466 439.06671545 201.3125 437.1875 C201.70373047 436.34058594 202.09496094 435.49367188 202.49804688 434.62109375 C202.84544922 433.8321875 203.19285156 433.04328125 203.55078125 432.23046875 C204.00964722 431.21569458 204.00964722 431.21569458 204.4777832 430.18041992 C205.8012566 424.65450086 203.20842243 419.81706191 200.7890625 414.96875 C200.46519058 414.30446991 200.14131866 413.64018982 199.80763245 412.95578003 C198.75421221 410.80010583 197.68978986 408.65007764 196.625 406.5 C195.890421 405.00241538 195.15645733 403.50452879 194.4230957 402.00634766 C189.96006254 392.90426709 185.43648102 383.83231187 180.88012695 374.77661133 C173.92345377 360.92231992 167.34460072 346.88351962 160.77001953 332.8449707 C158.25655297 327.49822374 155.61842172 322.2200322 152.95703125 316.9453125 C150.52495845 312.0811669 148.20845627 307.16197305 145.875 302.25 C141.84829519 293.78251894 137.71304954 285.37624789 133.5 277 C128.92171739 267.89728902 124.4615289 258.74831673 120.09375 249.54296875 C116.81431064 242.65139327 113.43049415 235.81750859 110 229 C104.65378567 218.36854824 99.49126626 207.65769818 94.38427734 196.90966797 C82.84096846 172.64632488 71.2658147 148.37768146 59.1875 124.375 C55.32602421 116.70126606 51.58197204 108.98016296 47.8972168 101.22021484 C42.68218879 90.27252035 37.33378434 79.39017334 32 68.5 C24.99977205 54.20376391 18.01615289 39.90262351 11.19873047 25.51806641 C9.85165584 22.68838663 8.49092171 19.86548595 7.12890625 17.04296875 C6.65678711 16.06134766 6.18466797 15.07972656 5.69824219 14.06835938 C4.79942639 12.1997853 3.89789605 10.33251361 2.99316406 8.46679688 C2.59967773 7.64630859 2.20619141 6.82582031 1.80078125 5.98046875 C1.45184814 5.25754639 1.10291504 4.53462402 0.7434082 3.78979492 C0 2 0 2 0 0 Z " fill="#00449E" transform="translate(365,253)"/>
<path d="M0 0 C51.48 0 102.96 0 156 0 C153.74994439 11.25027805 153.74994439 11.25027805 152.49462891 15.77709961 C152.07182899 17.31186699 152.07182899 17.31186699 151.64048767 18.87763977 C151.18809471 20.49861824 151.18809471 20.49861824 150.7265625 22.15234375 C150.4064772 23.3098967 150.08639191 24.46744965 149.75660706 25.66007996 C149.07107569 28.13705513 148.38388104 30.61357048 147.69515991 33.08966064 C146.61394286 36.97725678 145.53755466 40.86616254 144.4621582 44.75537109 C141.13286892 56.78731598 137.7786469 68.8119592 134.37890625 80.82421875 C133.83048635 82.76763692 133.2821441 84.711077 132.73388672 86.65454102 C131.73712295 90.18735449 130.73116467 93.71735349 129.71923828 97.24584961 C119.62489763 132.75504467 117.01852871 169.51936591 123 206 C123.11746582 206.73379883 123.23493164 207.46759766 123.35595703 208.22363281 C126.31930493 226.19351248 132.19231474 247.39308946 142.5625 262.5625 C146.54116216 268.79755588 144.66427644 275.09409035 143.15667725 281.99822998 C142.26643379 285.89079604 141.31305977 289.76682708 140.34498215 293.64068222 C139.69871779 296.2286208 139.06308836 298.8189749 138.43008423 301.41018677 C136.85857123 307.83514816 135.27180771 314.25631189 133.6807251 320.67645264 C132.33028313 326.12588595 130.98798307 331.57718192 129.65764236 337.03155899 C129.03253729 339.580088 128.39537012 342.12540748 127.75790405 344.67086792 C127.37620248 346.23208026 126.9951164 347.79344325 126.61474609 349.35498047 C126.43505783 350.05843094 126.25536957 350.76188141 126.07023621 351.48664856 C125.1527642 355.31718023 124.78892228 358.21997921 126 362 C142.98053428 388.3796812 173.56824009 403.06782608 203.18945312 409.71582031 C226.1182388 414.36007653 249.36641597 415.60205964 272.625 412.75 C273.98854614 412.58612793 273.98854614 412.58612793 275.37963867 412.41894531 C289.2947462 410.51683536 302.8233362 406.33242045 316.1875 402.125 C316.92490417 401.89378448 317.66230835 401.66256897 318.42205811 401.42434692 C335.87802475 395.92387612 352.94821544 389.46131258 369.984375 382.78839111 C371.8606261 382.05451467 373.7388313 381.32563953 375.6171875 380.59716797 C401.96261651 370.37281692 428.44812872 359.19176557 453.54296875 346.16015625 C456 345 456 345 459 345 C459 393.51 459 442.02 459 492 C307.53 492 156.06 492 0 492 C0 329.64 0 167.28 0 0 Z " fill="#00449E" transform="translate(0,254)"/>
<path d="M0 0 C0.24913974 18.04921577 0.03279855 36.06213702 -0.69171143 54.0993042 C-0.77139269 56.09528152 -0.84712241 58.09142103 -0.91864014 60.08770752 C-1.79284671 84.00260505 -5.14039441 104.20837602 -23.515625 121.390625 C-28.46180197 125.64645168 -33.99664314 128.42283801 -39.8125 131.3125 C-42.05628949 132.45123216 -44.29977664 133.59056026 -46.54296875 134.73046875 C-47.64302246 135.28524902 -48.74307617 135.8400293 -49.87646484 136.41162109 C-53.39971039 138.20326058 -56.88814719 140.05307694 -60.37231445 141.91918945 C-68.3592415 146.19440704 -76.45418285 150.21283543 -84.625 154.125 C-85.64029785 154.6111377 -86.6555957 155.09727539 -87.70166016 155.59814453 C-94.86664099 159 -94.86664099 159 -96 159 C-107.13153379 82.11657073 -107.13153379 82.11657073 -88.15625 54.296875 C-82.85424099 47.871559 -75.96513268 43.43017624 -69 39 C-67.93265625 38.319375 -66.8653125 37.63875 -65.765625 36.9375 C-59.2238863 32.85290218 -52.56165308 28.99114014 -45.8515625 25.19140625 C-42.27230189 23.16203479 -38.71513028 21.09582651 -35.15893555 19.02636719 C-27.83018272 14.76295975 -20.47418509 10.5552711 -13.0625 6.4375 C-12.31129883 6.02000488 -11.56009766 5.60250977 -10.78613281 5.17236328 C-1.43766053 0 -1.43766053 0 0 0 Z " fill="#00449D" transform="translate(337,336)"/>
<path d="M0 0 C0.33 0 0.66 0 1 0 C1.48571334 3.70750523 1.9622879 7.41613534 2.4375 11.125 C2.57220703 12.15238281 2.70691406 13.17976562 2.84570312 14.23828125 C4.49970725 27.2282649 5.16733542 40.10468391 5.13037109 53.18579102 C5.12501342 55.43187226 5.13035385 57.6777529 5.13671875 59.92382812 C5.14057292 69.32452695 4.75413513 78.62828203 4 88 C3.67 88 3.34 88 3 88 C2.98969254 87.24911102 2.97938507 86.49822205 2.96876526 85.72457886 C2.87061169 78.63319284 2.76807261 71.54188678 2.66066074 64.45063591 C2.60559831 60.80533611 2.55220599 57.16002807 2.50268555 53.51464844 C2.45479469 49.99382036 2.40244482 46.47308375 2.34705925 42.95236588 C2.31689118 40.96168609 2.29128943 38.9709388 2.26576233 36.98019409 C2.24581711 35.75938141 2.22587189 34.53856873 2.20532227 33.28076172 C2.18977798 32.21042694 2.1742337 31.14009216 2.15821838 30.037323 C1.99788791 26.95945423 1.56563252 24.02741931 1 21 C0.01 21 -0.98 21 -2 21 C-2 15.72 -2 10.44 -2 5 C-1.34 5 -0.68 5 0 5 C0 3.35 0 1.7 0 0 Z " fill="#08418C" transform="translate(1869,115)"/>
<path d="M0 0 C0 48.18 0 96.36 0 146 C-0.33 146 -0.66 146 -1 146 C-1.33 98.81 -1.66 51.62 -2 3 C-3.65 3 -5.3 3 -7 3 C-3.375 0 -3.375 0 0 0 Z " fill="#00458B" transform="translate(459,599)"/>
<path d="M0 0 C0.33 0 0.66 0 1 0 C1 17.16 1 34.32 1 52 C0.34 51.67 -0.32 51.34 -1 51 C-2.14480771 46.17752086 -2.25627254 41.28128816 -2.421875 36.34765625 C-2.46371918 35.12011879 -2.46371918 35.12011879 -2.50640869 33.86778259 C-2.56256123 32.14411124 -2.61620595 30.42035656 -2.66748047 28.6965332 C-2.74965018 26.07366622 -2.85327862 23.45216782 -2.95703125 20.83007812 C-3.00914779 19.14847835 -3.05997183 17.46683792 -3.109375 15.78515625 C-3.14359558 15.00890396 -3.17781616 14.23265167 -3.21307373 13.43287659 C-3.3337069 8.18151471 -2.37496158 4.69361685 0 0 Z " fill="#0A3B80" transform="translate(119,395)"/>
<path d="M0 0 C0.33 0 0.66 0 1 0 C1.33965474 2.18652739 1.67142477 4.37428025 2 6.5625 C2.185625 7.78066406 2.37125 8.99882813 2.5625 10.25390625 C2.98555077 13.87627848 3.07501425 17.35712046 3 21 C1.35 21 -0.3 21 -2 21 C-2 15.72 -2 10.44 -2 5 C-1.34 5 -0.68 5 0 5 C0 3.35 0 1.7 0 0 Z " fill="#093A7A" transform="translate(1869,115)"/>
<path d="M0 0 C2.11913451 1.70503455 2.92869159 2.6156352 3.43237305 5.33056641 C3.45855713 6.24499512 3.48474121 7.15942383 3.51171875 8.1015625 C3.54724854 9.13812988 3.58277832 10.17469727 3.61938477 11.24267578 C3.64186279 12.35884277 3.66434082 13.47500977 3.6875 14.625 C3.72093506 15.7682373 3.75437012 16.91147461 3.78881836 18.08935547 C4.10419626 30.05733242 4.10092227 42.02906557 4 54 C3.67 54 3.34 54 3 54 C2.91697632 52.29239502 2.91697632 52.29239502 2.83227539 50.55029297 C2.62325116 46.25984974 2.41213496 41.9695114 2.20043945 37.67919922 C2.10971412 35.83482545 2.0195295 33.99042498 1.92993164 32.14599609 C1.40847201 21.41965893 0.83409591 10.70741162 0 0 Z " fill="#043B81" transform="translate(1767,68)"/>
<path d="M0 0 C0.33 0 0.66 0 1 0 C1.12036664 5.77759884 0.8320582 11.27959989 0 17 C-2.31590289 13.52614567 -2.26991835 12.03569994 -2.25 7.9375 C-2.25515625 6.87402344 -2.2603125 5.81054688 -2.265625 4.71484375 C-2 2 -2 2 0 0 Z " fill="#08337E" transform="translate(1871,204)"/>
<path d="M0 0 C0.66 0.33 1.32 0.66 2 1 C1.690625 2.010625 1.38125 3.02125 1.0625 4.0625 C0.02352081 7.6731369 -0.54311181 11.26874647 -1 15 C-3.39073445 11.17482487 -3.55966552 7.40334476 -4 3 C-2.68 2.01 -1.36 1.02 0 0 Z " fill="#084292" transform="translate(1766,37)"/>
<path d="M0 0 C1.65 0 3.3 0 5 0 C4.25 6.625 4.25 6.625 2 10 C-0.09350689 6.5980513 -0.17942163 3.94727588 0 0 Z " fill="#08387A" transform="translate(1851,288)"/>
<path d="M0 0 C1.00496822 4.01987287 1.00053447 4.97880708 -0.25 8.6875 C-0.50265625 9.47511719 -0.7553125 10.26273437 -1.015625 11.07421875 C-2 13 -2 13 -5 14 C-5 14.99 -5 15.98 -5 17 C-5.66 16.67 -6.32 16.34 -7 16 C-4.69 10.72 -2.38 5.44 0 0 Z " fill="#044089" transform="translate(1732,270)"/>
<path d="M0 0 C0.66 0.66 1.32 1.32 2 2 C1.2575 2.70125 0.515 3.4025 -0.25 4.125 C-3.09535508 6.91588732 -3.09535508 6.91588732 -5.125 10.3125 C-6.053125 11.6428125 -6.053125 11.6428125 -7 13 C-7.99 13 -8.98 13 -10 13 C-8.48446596 9.52224821 -6.4226544 7.0442016 -3.875 4.25 C-3.15054687 3.45078125 -2.42609375 2.6515625 -1.6796875 1.828125 C-0.84824219 0.92320312 -0.84824219 0.92320312 0 0 Z " fill="#063B8A" transform="translate(1490,629)"/>
<path d="M0 0 C0.66 0.33 1.32 0.66 2 1 C0.68 3.97 -0.64 6.94 -2 10 C-2.33 9.01 -2.66 8.02 -3 7 C-3.99 6.67 -4.98 6.34 -6 6 C-5.34 4.68 -4.68 3.36 -4 2 C-2.68 2 -1.36 2 0 2 C0 1.34 0 0.68 0 0 Z " fill="#043D7F" transform="translate(848,413)"/>
<path d="M0 0 C4.29 0 8.58 0 13 0 C12.67 0.66 12.34 1.32 12 2 C9.05859375 2.4140625 9.05859375 2.4140625 5.4375 2.625 C4.23996094 2.69976562 3.04242187 2.77453125 1.80859375 2.8515625 C0.88175781 2.90054688 -0.04507812 2.94953125 -1 3 C-0.67 2.01 -0.34 1.02 0 0 Z " fill="#06448C" transform="translate(1187,243)"/>
<path d="M0 0 C0.33 0.66 0.66 1.32 1 2 C1.66 2.33 2.32 2.66 3 3 C2.34 3 1.68 3 1 3 C1 4.98 1 6.96 1 9 C0.01 9.33 -0.98 9.66 -2 10 C-2 10.66 -2 11.32 -2 12 C-2.66 12 -3.32 12 -4 12 C-3.52309796 10.37433394 -3.04340334 8.74948689 -2.5625 7.125 C-2.29566406 6.22007812 -2.02882813 5.31515625 -1.75390625 4.3828125 C-1 2 -1 2 0 0 Z " fill="#023A84" transform="translate(690,424)"/>
<path d="M0 0 C-0.33 0.99 -0.66 1.98 -1 3 C-5.62 3 -10.24 3 -15 3 C-15 2.67 -15 2.34 -15 2 C-13.43883181 1.66048381 -11.87598662 1.32867456 -10.3125 1 C-9.44238281 0.814375 -8.57226562 0.62875 -7.67578125 0.4375 C-5.06287036 0.01027953 -2.64186962 -0.07616201 0 0 Z " fill="#084185" transform="translate(294,664)"/>
<path d="M0 0 C0.99 0 1.98 0 3 0 C2.14285714 8.57142857 2.14285714 8.57142857 0 12 C0 8 0 4 0 0 Z " fill="#073571" transform="translate(141,528)"/>
<path d="M0 0 C0.33 0 0.66 0 1 0 C1.64165788 5.26159459 0.20577001 7.68592849 -2.90625 11.6796875 C-3.2671875 12.11539063 -3.628125 12.55109375 -4 13 C-4.33 12.34 -4.66 11.68 -5 11 C-4.00390625 8.3984375 -4.00390625 8.3984375 -2.5625 5.375 C-2.08941406 4.37210938 -1.61632812 3.36921875 -1.12890625 2.3359375 C-0.75636719 1.56507813 -0.38382812 0.79421875 0 0 Z " fill="#023B85" transform="translate(482,882)"/>
<path d="M0 0 C0.99 0 1.98 0 3 0 C3 2.64 3 5.28 3 8 C2.01 8 1.02 8 0 8 C0 5.36 0 2.72 0 0 Z " fill="#053068" transform="translate(333,376)"/>
<path d="M0 0 C0.33 0.99 0.66 1.98 1 3 C-0.21484375 5.04296875 -0.21484375 5.04296875 -1.9375 7.1875 C-2.50339844 7.90292969 -3.06929687 8.61835937 -3.65234375 9.35546875 C-4.09707031 9.89816406 -4.54179688 10.44085937 -5 11 C-5.66 10.67 -6.32 10.34 -7 10 C-3.535 5.05 -3.535 5.05 0 0 Z " fill="#08408B" transform="translate(1556,548)"/>
<path d="M0 0 C0.33 0 0.66 0 1 0 C1.125 2.375 1.125 2.375 1 5 C0.34 5.66 -0.32 6.32 -1 7 C-1.33 7.845625 -1.66 8.69125 -2 9.5625 C-3 12 -3 12 -5 13 C-4.54554036 11.58208592 -4.08625056 10.16571954 -3.625 8.75 C-3.24214844 7.56664062 -3.24214844 7.56664062 -2.8515625 6.359375 C-2.04826333 4.13372042 -1.10288338 2.09068328 0 0 Z " fill="#0A428A" transform="translate(554,718)"/>
<path d="M0 0 C1.32 0.33 2.64 0.66 4 1 C3.01 4.3 2.02 7.6 1 11 C0.67 11 0.34 11 0 11 C0 7.37 0 3.74 0 0 Z " fill="#064182" transform="translate(1077,428)"/>
<path d="M0 0 C0.99 0 1.98 0 3 0 C2.34 2.31 1.68 4.62 1 7 C0.67 6.34 0.34 5.68 0 5 C-0.99 5 -1.98 5 -3 5 C-2.67 4.01 -2.34 3.02 -2 2 C-1.34 2 -0.68 2 0 2 C0 1.34 0 0.68 0 0 Z " fill="#033A80" transform="translate(1837,336)"/>
<path d="M0 0 C0 0.66 0 1.32 0 2 C-1.093125 2.309375 -2.18625 2.61875 -3.3125 2.9375 C-5.55407994 3.58337897 -7.7869351 4.2623117 -10 5 C-10.99 4.34 -11.98 3.68 -13 3 C-11.39743892 2.49487756 -9.79288208 1.99608373 -8.1875 1.5 C-7.29417969 1.2215625 -6.40085937 0.943125 -5.48046875 0.65625 C-3 0 -3 0 0 0 Z " fill="#03428E" transform="translate(1162,246)"/>
<path d="M0 0 C0.33 0 0.66 0 1 0 C1 2.64 1 5.28 1 8 C-0.32 8.33 -1.64 8.66 -3 9 C-2.01 6.03 -1.02 3.06 0 0 Z " fill="#003986" transform="translate(514,809)"/>
<path d="M0 0 C1.98 0.495 1.98 0.495 4 1 C2.02 5.455 2.02 5.455 0 10 C-1.00000429 5.99998285 -0.80688405 3.94476647 0 0 Z " fill="#084287" transform="translate(756,615)"/>
<path d="M0 0 C1.0625 1.8125 1.0625 1.8125 2 4 C1.67 4.99 1.34 5.98 1 7 C-0.32 7 -1.64 7 -3 7 C-1.125 1.125 -1.125 1.125 0 0 Z " fill="#094280" transform="translate(659,501)"/>
<path d="M0 0 C1.32 0 2.64 0 4 0 C3.34 2.31 2.68 4.62 2 7 C1.67 6.01 1.34 5.02 1 4 C0.34 4 -0.32 4 -1 4 C-0.67 2.68 -0.34 1.36 0 0 Z " fill="#084282" transform="translate(828,452)"/>
<path d="M0 0 C-1.07401108 2.91517292 -1.77810176 4.77810176 -4 7 C-4.33 5.02 -4.66 3.04 -5 1 C-3 0 -3 0 0 0 Z " fill="#01458A" transform="translate(1807,407)"/>
<path d="M0 0 C-1.62249941 0.83819158 -3.24808497 1.6704116 -4.875 2.5 C-6.23238281 3.19609375 -6.23238281 3.19609375 -7.6171875 3.90625 C-10 5 -10 5 -12 5 C-12 4.34 -12 3.68 -12 3 C-8.26014446 -0.46282921 -4.87756518 -1.62585506 0 0 Z " fill="#033E86" transform="translate(1124,383)"/>
<path d="M0 0 C0.33 0 0.66 0 1 0 C1.39213671 4.44421603 0.25321274 7.18687075 -2 11 C-2.99 11.495 -2.99 11.495 -4 12 C-3.33501617 7.61110675 -1.81242323 4.0188515 0 0 Z " fill="#07448B" transform="translate(727,335)"/>
<path d="M0 0 C1.32 0 2.64 0 4 0 C3.25 4.75 3.25 4.75 1 7 C0.34 5.02 -0.32 3.04 -1 1 C-0.67 0.67 -0.34 0.34 0 0 Z " fill="#07437F" transform="translate(892,308)"/>
<path d="M0 0 C0.66 0.33 1.32 0.66 2 1 C0.68 3.64 -0.64 6.28 -2 9 C-2.33 9 -2.66 9 -3 9 C-3.33 6.69 -3.66 4.38 -4 2 C-2.68 2 -1.36 2 0 2 C0 1.34 0 0.68 0 0 Z " fill="#023775" transform="translate(784,557)"/>
<path d="M0 0 C2.1385485 2.1385485 2.42655063 3.13275314 3 6 C0.83125748 5.49396008 -0.99967627 5.00016187 -3 4 C-2.67 3.01 -2.34 2.02 -2 1 C-1.34 0.67 -0.68 0.34 0 0 Z " fill="#003E83" transform="translate(557,306)"/>
<path d="M0 0 C0.66 0.99 1.32 1.98 2 3 C1.34 3.66 0.68 4.32 0 5 C-0.64767793 7.57061311 -0.64767793 7.57061311 -1 10 C-1.99 9.67 -2.98 9.34 -4 9 C-2.68 6.03 -1.36 3.06 0 0 Z " fill="#08428C" transform="translate(524,786)"/>
<path d="M0 0 C0.33 0 0.66 0 1 0 C1.125 2.375 1.125 2.375 1 5 C0.34 5.66 -0.32 6.32 -1 7 C-1.6425235 9.06874034 -1.6425235 9.06874034 -2 11 C-2.66 11 -3.32 11 -4 11 C-3.52269162 9.5410574 -3.04308958 8.08286504 -2.5625 6.625 C-2.29566406 5.81289063 -2.02882813 5.00078125 -1.75390625 4.1640625 C-1 2 -1 2 0 0 Z " fill="#083D83" transform="translate(570,681)"/>
<path d="M0 0 C0.33 0.66 0.66 1.32 1 2 C-1.47812494 5.45167403 -2.79606135 7.23163306 -7 8 C-6.02133662 6.85373678 -5.04205413 5.70800212 -4.0625 4.5625 C-3.51722656 3.92441406 -2.97195313 3.28632812 -2.41015625 2.62890625 C-1.63204305 1.73008851 -0.84063472 0.84063472 0 0 Z " fill="#054490" transform="translate(1450,675)"/>
<path d="M0 0 C0.66 0.33 1.32 0.66 2 1 C1.01 2.485 1.01 2.485 0 4 C-3.625 4.1875 -3.625 4.1875 -7 4 C-4.61426621 2.10786631 -2.92824652 0.97608217 0 0 Z " fill="#003682" transform="translate(440,607)"/>
<path d="M0 0 C1.32 0 2.64 0 4 0 C3.34 1.98 2.68 3.96 2 6 C1.67 5.34 1.34 4.68 1 4 C0.34 4 -0.32 4 -1 4 C-0.67 2.68 -0.34 1.36 0 0 Z " fill="#084480" transform="translate(796,524)"/>
<path d="M0 0 C0.66 0.99 1.32 1.98 2 3 C1 5 0 7 -1 9 C-1.66 9 -2.32 9 -3 9 C-2.01 6.03 -1.02 3.06 0 0 Z " fill="#064385" transform="translate(683,441)"/>
<path d="M0 0 C2.6855594 2.6855594 3.06049974 5.37621328 4 9 C2.68 8.67 1.36 8.34 0 8 C0 5.36 0 2.72 0 0 Z " fill="#00397E" transform="translate(589,377)"/>
<path d="M0 0 C0.66 0 1.32 0 2 0 C1.25 7.625 1.25 7.625 -1 11 C-1.33 9.35 -1.66 7.7 -2 6 C-1.34 6 -0.68 6 0 6 C0 4.02 0 2.04 0 0 Z " fill="#0D3F83" transform="translate(126,354)"/>
<path d="M0 0 C0.66 1.32 1.32 2.64 2 4 C1.34 4 0.68 4 0 4 C-0.33 5.65 -0.66 7.3 -1 9 C-1.66 9 -2.32 9 -3 9 C-2.01 6.03 -1.02 3.06 0 0 Z " fill="#093D8C" transform="translate(746,289)"/>
<path d="M0 0 C1.98 0.495 1.98 0.495 4 1 C3.34 2.65 2.68 4.3 2 6 C1.67 5.34 1.34 4.68 1 4 C0.34 4 -0.32 4 -1 4 C-0.67 2.68 -0.34 1.36 0 0 Z " fill="#083883" transform="translate(684,776)"/>
<path d="M0 0 C1.98 0.495 1.98 0.495 4 1 C3.34 2.65 2.68 4.3 2 6 C1.67 5.34 1.34 4.68 1 4 C0.34 4 -0.32 4 -1 4 C-0.67 2.68 -0.34 1.36 0 0 Z " fill="#084481" transform="translate(764,596)"/>
<path d="M0 0 C0.99 0.99 1.98 1.98 3 3 C1.625 5 1.625 5 0 7 C-0.66 7 -1.32 7 -2 7 C-1.34 4.69 -0.68 2.38 0 0 Z " fill="#04488A" transform="translate(668,477)"/>
<path d="M0 0 C0.99 0.495 0.99 0.495 2 1 C2.33 1.99 2.66 2.98 3 4 C4.49985609 5.66710346 4.49985609 5.66710346 6 7 C5.67 7.66 5.34 8.32 5 9 C4.34 9 3.68 9 3 9 C2.01 6.03 1.02 3.06 0 0 Z " fill="#08418B" transform="translate(438,403)"/>
<path d="M0 0 C0.33 0.99 0.66 1.98 1 3 C-0.25 4.5625 -0.25 4.5625 -2 6 C-4.1875 5.6875 -4.1875 5.6875 -6 5 C-4.02 3.35 -2.04 1.7 0 0 Z " fill="#013D8B" transform="translate(259,381)"/>
<path d="M0 0 C2.35953094 2.35953094 2.49141413 3.77895617 3 7 C1.68 7 0.36 7 -1 7 C-0.67 4.69 -0.34 2.38 0 0 Z " fill="#06448A" transform="translate(581,359)"/>
<path d="M0 0 C3 3.625 3 3.625 3 7 C1.68 7 0.36 7 -1 7 C-0.67 4.69 -0.34 2.38 0 0 Z " fill="#064388" transform="translate(1845,37)"/>
<path d="M0 0 C3.96 1.98 3.96 1.98 8 4 C4.37673261 5.2077558 3.35853631 4.54311128 0 3 C0 2.01 0 1.02 0 0 Z " fill="#063D86" transform="translate(155,645)"/>
<path d="M0 0 C2.5654594 2.5654594 2.54046087 4.47686668 3 8 C2.01 8 1.02 8 0 8 C0 5.36 0 2.72 0 0 Z " fill="#013672" transform="translate(1853,56)"/>
</svg>
